<svg id="svg" version="1.1" xmlns="http://www.w3.org/2000/svg" xmlns:xlink="http://www.w3.org/1999/xlink" width="400" height="400" viewBox="0, 0, 400,400"><g id="svgg"><path id="path0" d="M0.000 200.000 L 0.000 400.000 200.000 400.000 L 400.000 400.000 400.000 200.000 L 400.000 0.000 200.000 0.000 L 0.000 0.000 0.000 200.000 M110.090 136.968 C 116.206 140.493,122.544 148.578,124.212 154.982 C 126.278 162.914,123.467 167.144,114.327 169.859 C 112.143 170.507,111.970 170.835,113.406 171.603 C 119.232 174.721,123.240 191.676,119.061 195.528 C 115.750 198.579,110.279 200.058,102.600 199.978 C 99.740 199.948,96.280 199.953,94.911 199.987 C 88.866 200.142,76.796 191.529,80.374 189.614 C 81.440 189.043,82.626 189.566,85.149 191.719 C 94.760 199.923,99.105 197.037,99.501 182.188 C 99.670 175.880,99.613 174.908,99.047 174.439 C 98.691 174.144,98.400 173.564,98.400 173.151 C 98.400 172.738,98.220 172.400,98.000 172.400 C 95.818 172.400,95.908 169.189,98.113 168.421 L 99.315 168.002 99.057 161.701 C 98.915 158.235,98.682 152.008,98.539 147.862 L 98.280 140.324 97.046 140.571 C 95.842 140.812,94.630 141.554,91.417 144.019 C 89.412 145.558,88.245 145.461,88.078 143.743 C 87.926 142.181,89.195 141.211,96.200 137.532 C 100.665 135.187,106.583 134.947,110.090 136.968 M211.191 139.591 C 211.626 140.026,211.883 140.641,211.761 140.957 C 211.541 141.530,211.171 141.798,205.736 145.308 C 202.902 147.139,200.800 149.332,200.800 150.458 C 200.800 150.778,200.640 151.211,200.445 151.420 C 200.126 151.762,199.282 154.901,198.608 158.259 C 197.923 161.664,200.806 164.039,208.000 165.996 C 219.771 169.199,219.739 177.669,207.903 192.285 C 204.828 196.081,203.777 196.800,201.300 196.800 C 199.300 196.800,194.400 194.250,194.400 193.209 C 194.400 191.449,193.633 193.470,193.226 196.300 C 192.345 202.436,189.486 211.097,187.342 214.126 C 183.558 219.474,171.863 222.615,171.266 218.444 C 171.064 217.030,171.580 216.778,175.446 216.405 C 181.850 215.787,183.736 214.014,187.578 205.000 C 187.766 204.560,188.092 203.660,188.304 203.000 C 191.015 194.541,190.730 192.800,186.639 192.800 C 183.796 192.800,180.084 191.883,177.477 190.536 C 176.379 189.969,176.303 190.004,174.028 192.110 C 167.407 198.240,156.192 197.587,155.013 191.003 C 154.856 190.125,154.649 189.279,154.553 189.123 C 154.457 188.968,152.866 190.339,151.019 192.170 C 143.204 199.915,137.469 201.845,131.600 198.706 C 125.961 195.691,125.260 188.917,127.986 163.800 C 129.785 147.235,130.368 144.321,132.186 142.812 C 133.998 141.308,134.841 144.508,134.015 149.754 C 133.803 151.099,133.434 153.820,133.195 155.800 C 132.955 157.780,132.598 160.660,132.400 162.200 C 130.015 180.791,129.375 188.424,129.965 191.246 C 130.998 196.190,137.234 198.057,142.286 194.936 C 145.980 192.654,149.089 189.785,150.416 187.433 C 151.733 185.100,153.027 183.750,154.148 183.540 C 154.710 183.435,155.165 182.500,155.971 179.800 C 158.612 170.953,162.557 166.800,168.319 166.800 C 170.465 166.800,176.624 171.839,178.255 174.929 L 178.850 176.058 181.978 173.070 C 185.989 169.238,187.009 168.765,191.460 168.677 C 196.889 168.569,199.073 169.910,197.248 172.230 C 196.804 172.794,196.336 174.099,196.209 175.128 C 196.082 176.158,195.813 177.900,195.611 179.000 C 194.247 186.442,194.223 186.790,194.986 188.128 C 196.481 190.754,199.909 193.600,201.575 193.600 C 202.856 193.600,209.929 184.221,211.960 179.827 C 214.751 173.792,213.403 171.300,206.200 169.182 C 199.958 167.346,197.536 165.779,196.049 162.615 C 193.110 156.362,198.603 143.533,205.600 140.312 C 209.226 138.642,210.126 138.526,211.191 139.591 M102.267 139.467 C 101.857 139.876,101.962 166.521,102.376 167.175 C 103.238 168.538,113.987 166.659,118.345 164.384 C 123.699 161.588,122.236 154.801,114.136 144.857 C 110.449 140.332,104.227 137.506,102.267 139.467 M247.540 141.829 C 247.889 142.593,247.900 143.545,247.583 145.529 C 246.644 151.423,245.639 159.293,245.506 161.800 L 245.400 163.800 249.000 164.077 C 250.980 164.230,253.349 164.257,254.264 164.137 C 255.688 163.951,255.997 164.046,256.396 164.793 C 257.461 166.782,254.534 168.000,248.695 168.000 L 244.882 168.000 244.460 170.500 C 243.447 176.498,243.026 196.039,243.863 198.220 C 244.910 200.950,252.660 201.035,255.907 198.352 C 258.547 196.171,260.867 196.486,260.250 198.943 C 258.667 205.251,242.473 205.480,240.408 199.223 C 239.851 197.538,240.061 181.219,240.747 172.800 C 241.148 167.874,241.298 168.158,238.021 167.633 C 232.163 166.693,232.985 163.340,238.992 163.669 L 241.384 163.800 241.876 160.000 C 242.147 157.910,242.568 154.040,242.811 151.400 C 243.624 142.561,245.835 138.087,247.540 141.829 M226.146 158.429 C 227.406 159.420,227.461 160.166,226.404 161.900 C 225.405 163.539,223.232 163.753,222.223 162.311 C 220.195 159.416,223.386 156.258,226.146 158.429 M266.200 166.845 C 276.101 169.260,275.882 179.620,265.863 182.799 C 263.946 183.407,264.302 183.741,267.600 184.428 C 271.046 185.144,287.103 185.185,289.465 184.483 C 293.915 183.160,297.977 183.750,297.994 185.722 C 298.016 188.355,269.785 189.641,263.917 187.276 C 259.358 185.437,256.764 179.997,256.718 172.177 C 256.683 166.114,258.654 165.005,266.200 166.845 M259.772 172.033 C 259.923 173.371,260.204 174.856,260.396 175.333 C 260.588 175.810,260.848 176.683,260.973 177.273 C 261.371 179.142,267.109 179.323,268.788 177.520 C 269.713 176.528,270.205 173.930,269.661 172.914 C 268.925 171.539,263.910 169.600,261.089 169.600 L 259.497 169.600 259.772 172.033 M166.633 171.417 C 165.772 172.177,164.692 172.803,164.233 172.806 C 162.815 172.817,162.622 173.081,160.588 177.800 C 158.187 183.367,157.386 190.163,158.990 191.341 C 163.482 194.639,173.590 190.467,173.597 185.312 C 173.599 184.370,173.954 182.995,174.400 182.200 C 176.194 179.006,173.911 173.341,169.808 170.805 C 168.213 169.819,168.506 169.763,166.633 171.417 M224.403 171.804 C 224.912 172.417,224.843 173.330,223.979 177.400 C 222.029 186.583,225.671 191.938,232.606 190.083 C 235.315 189.358,235.844 189.459,236.400 190.800 C 237.336 193.061,234.704 194.297,230.024 193.796 C 224.360 193.189,220.262 189.850,219.791 185.457 C 218.970 177.783,221.977 168.880,224.403 171.804 M104.903 173.499 C 101.874 173.668,102.123 172.883,101.818 183.200 C 101.691 187.490,101.376 191.857,101.117 192.903 C 100.463 195.552,100.720 195.705,105.874 195.729 C 115.487 195.774,118.203 193.859,117.215 187.733 C 115.956 179.932,112.464 173.600,109.419 173.600 C 108.894 173.600,108.226 173.546,107.933 173.480 C 107.640 173.414,106.276 173.423,104.903 173.499 M188.600 173.591 C 185.363 174.180,184.172 175.111,180.921 179.600 C 177.608 184.173,177.789 187.502,181.386 188.152 C 189.328 189.587,189.600 189.528,189.600 186.375 C 189.600 185.315,189.780 184.336,190.000 184.200 C 190.220 184.064,190.400 182.820,190.400 181.436 C 190.400 178.953,190.743 177.406,191.840 174.940 C 192.148 174.246,192.400 173.571,192.400 173.440 C 192.400 173.141,190.703 173.209,188.600 173.591 " stroke="none" fill="#f4f4f4" fill-rule="evenodd"></path><path id="path1" d="M100.800 135.844 C 98.766 136.212,95.001 138.168,88.900 142.024 C 87.844 142.691,87.669 144.587,88.629 144.956 C 89.402 145.252,90.525 144.680,92.546 142.961 C 94.402 141.380,97.482 139.869,98.248 140.163 C 98.681 140.329,98.810 141.690,98.847 146.487 C 98.872 149.849,99.012 155.930,99.156 160.000 C 99.458 168.500,99.495 168.219,98.006 168.738 C 96.338 169.319,96.032 170.742,97.349 171.792 C 97.927 172.253,98.400 172.821,98.400 173.054 C 98.400 173.287,98.760 173.893,99.200 174.400 C 100.183 175.533,100.330 184.133,99.437 188.291 C 98.342 193.396,95.612 197.211,93.500 196.589 C 91.174 195.904,86.618 193.332,84.595 191.561 C 82.245 189.505,80.328 188.968,79.844 190.229 C 78.889 192.717,90.620 200.468,94.370 199.827 C 95.156 199.692,96.070 199.594,96.400 199.609 C 105.899 200.036,106.836 200.024,109.907 199.442 C 119.352 197.650,121.712 193.901,120.005 183.400 C 119.303 179.074,114.477 171.200,112.530 171.200 C 111.223 171.200,112.378 170.171,114.196 169.715 C 120.392 168.161,124.800 164.225,124.800 160.245 C 124.800 151.863,118.184 141.785,109.400 136.786 C 107.807 135.880,103.320 135.388,100.800 135.844 M108.490 139.780 C 111.650 141.100,117.142 147.627,120.002 153.461 C 124.179 161.983,120.600 165.912,107.117 167.610 C 101.440 168.324,102.000 169.879,102.000 153.413 L 102.000 139.200 104.551 139.200 C 105.954 139.200,107.727 139.461,108.490 139.780 M206.070 140.214 C 201.896 142.110,198.041 147.139,196.421 152.800 C 196.138 153.790,195.748 155.122,195.553 155.760 C 193.667 161.951,197.304 166.366,206.600 169.170 C 213.833 171.352,214.925 173.676,211.875 180.400 C 209.729 185.131,203.045 193.601,201.460 193.599 C 200.482 193.597,198.371 192.399,197.031 191.086 C 194.469 188.577,194.007 186.912,194.764 182.920 C 194.964 181.864,195.336 179.650,195.590 178.000 C 196.206 174.004,196.749 172.000,197.216 172.000 C 198.174 172.000,197.559 169.999,196.420 169.410 C 192.438 167.351,186.461 168.924,181.829 173.250 C 178.742 176.133,178.400 176.352,178.400 175.441 C 178.400 174.738,172.999 169.183,170.990 167.819 C 168.540 166.157,165.319 166.854,161.452 169.883 C 158.777 171.979,158.106 173.339,155.480 181.998 C 155.180 182.987,154.679 183.815,154.367 183.837 C 154.055 183.860,153.571 183.906,153.292 183.939 C 153.012 183.973,151.968 185.262,150.970 186.803 C 147.751 191.780,141.290 196.800,138.105 196.800 C 130.277 196.800,128.660 192.866,130.378 178.000 C 131.110 171.663,131.570 167.810,132.000 164.400 C 132.236 162.530,132.613 159.470,132.839 157.600 C 133.064 155.730,133.408 152.940,133.602 151.400 C 134.587 143.596,134.414 142.361,132.423 142.993 C 131.010 143.441,130.276 146.116,129.210 154.700 C 128.984 156.515,128.627 159.395,128.416 161.100 C 127.298 170.124,127.038 174.287,127.022 183.400 C 127.006 192.080,127.095 193.595,127.697 194.876 C 128.969 197.582,133.348 200.000,136.977 200.000 C 139.046 200.000,139.634 199.849,142.659 198.544 C 144.336 197.821,149.667 193.465,152.378 190.603 C 154.738 188.111,155.108 188.176,155.172 191.094 C 155.305 197.225,167.950 197.929,173.750 192.128 L 176.003 189.875 178.702 190.898 C 182.622 192.384,183.076 192.491,186.600 192.758 L 189.800 193.000 189.751 196.000 C 189.702 199.036,189.198 201.205,187.612 205.200 C 184.155 213.910,181.594 216.267,175.053 216.761 C 169.693 217.165,169.439 219.699,174.737 219.917 C 180.725 220.164,188.800 215.098,188.800 211.095 C 188.800 210.786,188.919 210.414,189.065 210.268 C 189.365 209.968,190.701 206.422,191.201 204.600 C 192.452 200.043,192.741 198.708,192.978 196.387 C 193.360 192.653,193.622 192.385,195.378 193.927 C 199.536 197.578,203.107 197.671,206.099 194.209 C 216.713 181.921,219.416 172.449,213.446 168.466 C 211.929 167.454,207.126 165.600,206.022 165.600 C 205.466 165.600,200.886 163.399,199.965 162.689 C 198.332 161.431,198.043 159.365,198.971 155.600 C 200.513 149.346,202.263 147.048,208.128 143.577 C 213.686 140.288,211.995 137.522,206.070 140.214 M244.858 142.000 C 243.886 143.599,242.398 152.778,242.399 157.167 C 242.400 158.139,242.202 160.074,241.959 161.467 L 241.518 164.000 238.408 164.000 C 232.711 164.000,233.091 167.466,238.800 167.584 C 241.261 167.634,241.240 167.556,240.779 174.822 C 239.372 197.034,239.855 201.599,243.710 202.524 C 244.199 202.641,245.680 203.015,247.000 203.355 C 252.189 204.689,258.079 202.790,260.023 199.157 C 261.332 196.711,258.635 196.173,256.127 198.381 C 252.698 201.399,244.735 201.083,243.620 197.885 C 242.780 195.475,243.219 178.263,244.325 170.200 L 244.600 168.200 249.000 167.960 C 254.700 167.649,256.823 166.757,256.237 164.919 C 256.033 164.281,255.419 164.191,250.758 164.121 C 247.871 164.078,245.422 163.955,245.315 163.848 C 245.132 163.666,245.554 159.404,246.387 153.000 C 247.531 144.214,247.651 142.629,247.239 141.726 C 246.661 140.458,245.731 140.565,244.858 142.000 M222.582 158.582 C 220.877 160.286,222.012 163.200,224.380 163.200 C 226.949 163.200,227.869 159.373,225.584 158.192 C 224.045 157.396,223.726 157.437,222.582 158.582 M257.596 167.700 C 256.729 169.122,256.467 174.383,257.151 176.640 C 260.584 187.966,261.035 188.198,279.621 188.165 C 295.270 188.137,299.010 187.435,297.597 184.794 C 297.065 183.800,293.398 183.804,287.800 184.805 C 284.266 185.436,269.144 185.077,266.227 184.292 C 264.126 183.727,263.285 182.803,264.867 182.796 C 271.215 182.770,275.871 173.666,271.538 169.753 C 267.744 166.327,259.200 165.069,257.596 167.700 M263.416 169.817 C 269.703 171.444,271.116 172.931,269.529 176.254 C 268.496 178.418,267.935 178.669,263.949 178.753 C 261.177 178.811,261.112 178.735,259.996 174.098 C 258.776 169.028,259.049 168.687,263.416 169.817 M171.679 172.417 C 175.415 176.343,176.145 178.976,174.482 182.515 C 173.997 183.547,173.600 184.999,173.600 185.742 C 173.600 187.628,171.637 190.096,169.000 191.527 C 168.116 192.007,166.711 192.181,163.665 192.189 C 158.136 192.204,157.793 191.854,158.173 186.601 C 158.459 182.651,158.621 182.056,160.771 177.000 C 162.128 173.810,162.684 173.009,163.642 172.863 C 164.670 172.706,166.269 171.774,167.316 170.720 C 168.471 169.558,169.244 169.858,171.679 172.417 M222.323 171.900 C 220.254 174.309,219.092 185.085,220.590 187.980 C 222.797 192.248,230.682 195.112,235.100 193.251 C 237.557 192.216,236.411 189.001,233.908 189.906 C 230.333 191.199,225.942 189.921,224.068 187.041 C 222.578 184.751,222.679 181.510,224.454 174.669 C 225.080 172.253,223.634 170.374,222.323 171.900 M192.540 173.102 C 192.642 173.269,192.410 174.055,192.024 174.849 C 191.027 176.898,190.295 180.776,189.857 186.329 C 189.621 189.322,188.769 189.786,184.963 188.999 C 183.223 188.639,181.344 188.252,180.787 188.140 C 180.230 188.027,179.375 187.634,178.887 187.266 L 178.000 186.597 178.768 183.911 C 179.650 180.829,183.088 175.893,185.224 174.643 C 187.113 173.537,192.152 172.476,192.540 173.102 M111.809 174.580 C 115.270 177.219,118.769 188.997,117.149 192.553 C 116.131 194.786,110.919 196.209,104.830 195.916 C 99.962 195.681,100.220 195.902,100.980 192.622 C 101.376 190.915,101.614 187.828,101.640 184.075 C 101.703 174.621,101.860 173.857,103.800 173.534 C 107.033 172.995,110.289 173.420,111.809 174.580 " stroke="none" fill="#fcfbfb" fill-rule="evenodd"></path><path id="path2" d="M97.689 140.250 C 98.293 140.429,98.395 141.175,98.506 146.228 L 98.633 152.001 98.617 146.105 C 98.601 140.510,98.559 140.206,97.800 140.128 C 97.198 140.066,97.171 140.097,97.689 140.250 M98.920 156.400 C 98.920 157.610,98.995 158.105,99.087 157.500 C 99.178 156.895,99.178 155.905,99.087 155.300 C 98.995 154.695,98.920 155.190,98.920 156.400 M236.900 163.887 C 237.505 163.978,238.495 163.978,239.100 163.887 C 239.705 163.795,239.210 163.720,238.000 163.720 C 236.790 163.720,236.295 163.795,236.900 163.887 M122.575 165.300 L 121.400 166.600 122.700 165.425 C 123.912 164.330,124.184 164.000,123.875 164.000 C 123.806 164.000,123.221 164.585,122.575 165.300 M259.905 166.283 C 260.402 166.379,261.122 166.375,261.505 166.275 C 261.887 166.175,261.480 166.096,260.600 166.101 C 259.720 166.105,259.407 166.187,259.905 166.283 M102.101 167.200 C 102.211 167.609,102.826 167.815,104.031 167.847 C 105.787 167.893,105.788 167.892,104.205 167.717 C 103.328 167.620,102.459 167.329,102.275 167.070 C 102.044 166.747,101.990 166.788,102.101 167.200 M191.700 168.676 C 192.085 168.776,192.715 168.776,193.100 168.676 C 193.485 168.575,193.170 168.493,192.400 168.493 C 191.630 168.493,191.315 168.575,191.700 168.676 M213.293 174.800 C 213.293 175.570,213.375 175.885,213.476 175.500 C 213.576 175.115,213.576 174.485,213.476 174.100 C 213.375 173.715,213.293 174.030,213.293 174.800 M99.759 180.800 C 99.759 183.990,99.821 185.295,99.897 183.700 C 99.973 182.105,99.973 179.495,99.897 177.900 C 99.821 176.305,99.759 177.610,99.759 180.800 M126.893 176.400 C 126.893 177.170,126.975 177.485,127.076 177.100 C 127.176 176.715,127.176 176.085,127.076 175.700 C 126.975 175.315,126.893 175.630,126.893 176.400 M240.509 177.600 C 240.509 178.590,240.587 178.995,240.682 178.500 C 240.778 178.005,240.778 177.195,240.682 176.700 C 240.587 176.205,240.509 176.610,240.509 177.600 M101.744 181.200 C 101.744 183.290,101.812 184.145,101.894 183.100 C 101.976 182.055,101.976 180.345,101.894 179.300 C 101.812 178.255,101.744 179.110,101.744 181.200 M219.734 182.800 C 219.734 184.450,219.805 185.125,219.891 184.300 C 219.978 183.475,219.978 182.125,219.891 181.300 C 219.805 180.475,219.734 181.150,219.734 182.800 M243.348 184.000 C 243.348 186.310,243.414 187.255,243.495 186.100 C 243.576 184.945,243.576 183.055,243.495 181.900 C 243.414 180.745,243.348 181.690,243.348 184.000 M126.554 185.600 C 126.554 188.350,126.618 189.475,126.696 188.100 C 126.774 186.725,126.774 184.475,126.696 183.100 C 126.618 181.725,126.554 182.850,126.554 185.600 M240.114 182.600 C 240.117 183.700,240.195 184.103,240.287 183.495 C 240.379 182.886,240.377 181.986,240.282 181.495 C 240.187 181.003,240.111 181.500,240.114 182.600 M222.893 183.600 C 222.893 184.370,222.975 184.685,223.076 184.300 C 223.176 183.915,223.176 183.285,223.076 182.900 C 222.975 182.515,222.893 182.830,222.893 183.600 M129.693 184.400 C 129.693 185.170,129.775 185.485,129.876 185.100 C 129.976 184.715,129.976 184.085,129.876 183.700 C 129.775 183.315,129.693 183.630,129.693 184.400 M120.534 189.200 C 120.534 190.850,120.605 191.525,120.691 190.700 C 120.778 189.875,120.778 188.525,120.691 187.700 C 120.605 186.875,120.534 187.550,120.534 189.200 M285.907 188.290 C 286.626 188.379,287.706 188.377,288.307 188.286 C 288.908 188.195,288.320 188.122,287.000 188.124 C 285.680 188.126,285.188 188.201,285.907 188.290 M220.800 188.925 C 220.800 188.994,221.385 189.579,222.100 190.225 L 223.400 191.400 222.225 190.100 C 221.130 188.888,220.800 188.616,220.800 188.925 M83.600 190.525 C 83.600 190.594,84.185 191.179,84.900 191.825 L 86.200 193.000 85.025 191.700 C 83.930 190.488,83.600 190.216,83.600 190.525 M150.981 192.100 L 149.400 193.800 151.100 192.219 C 152.681 190.748,152.984 190.400,152.681 190.400 C 152.616 190.400,151.851 191.165,150.981 192.100 M137.105 196.683 C 137.602 196.779,138.322 196.775,138.705 196.675 C 139.087 196.575,138.680 196.496,137.800 196.501 C 136.920 196.505,136.607 196.587,137.105 196.683 M136.100 200.276 C 136.485 200.376,137.115 200.376,137.500 200.276 C 137.885 200.175,137.570 200.093,136.800 200.093 C 136.030 200.093,135.715 200.175,136.100 200.276 M182.800 213.400 C 181.828 214.390,181.123 215.200,181.233 215.200 C 181.343 215.200,182.228 214.390,183.200 213.400 C 184.172 212.410,184.877 211.600,184.767 211.600 C 184.657 211.600,183.772 212.410,182.800 213.400 M174.100 216.687 C 174.705 216.778,175.695 216.778,176.300 216.687 C 176.905 216.595,176.410 216.520,175.200 216.520 C 173.990 216.520,173.495 216.595,174.100 216.687 M173.700 220.276 C 174.085 220.376,174.715 220.376,175.100 220.276 C 175.485 220.175,175.170 220.093,174.400 220.093 C 173.630 220.093,173.315 220.175,173.700 220.276 " stroke="none" fill="#f8f4f4" fill-rule="evenodd"></path><path id="path3" d="" stroke="none" fill="#f4fcf8" fill-rule="evenodd"></path><path id="path4" d="" stroke="none" fill="#f4f4fc" fill-rule="evenodd"></path></g></svg>